PathFileType	4	(X/Y/Z)	C:\Users\Basilio\Documents\Thesis Gigler\squatting_fais\c3dfiles\039\SJ_pre3\markers_experimental.trc
DataRate	CameraRate	NumFrames	NumMarkers	Units	OrigDataRate	OrigDataStartFrame	OrigNumFrames
200.000000	200.000000	4	63	mm	200.000000	880	1760
Frame#	Time	FHD			LBHD			RBHD			C7			T10			CLAV			LSHO			LUUPA			LMUPA			LDUPA			LLEP			LMEP			LRAD			LUL			LRFIN			RSHO			RUPA1			RMUPA			RDUPA			RLEP			RMEP			RRAD			RUL			RUFIN			LASI			RASI			USACR			LSACR			RSACR			LTHI1			LTHI2			LTHI3			LTHI4			LLFC			LMFC			LTIB1			LTIB2			LTIB3			LTIB4			LLMAL			LMMAL			LHEE			LMT1			LMT2			LMT5			RTHI			RTHI2			RTHI3			RTHI4			RLFC			RMFC			RTIB1			RTIB2			RTIB3			RTIB4			RLMAL			RMMAL			RHEE			RMT1			RMT2			RMT5			*61			*62			
		X1	Y1	Z1	X2	Y2	Z2	X3	Y3	Z3	X4	Y4	Z4	X5	Y5	Z5	X6	Y6	Z6	X7	Y7	Z7	X8	Y8	Z8	X9	Y9	Z9	X10	Y10	Z10	X11	Y11	Z11	X12	Y12	Z12	X13	Y13	Z13	X14	Y14	Z14	X15	Y15	Z15	X16	Y16	Z16	X17	Y17	Z17	X18	Y18	Z18	X19	Y19	Z19	X20	Y20	Z20	X21	Y21	Z21	X22	Y22	Z22	X23	Y23	Z23	X24	Y24	Z24	X25	Y25	Z25	X26	Y26	Z26	X27	Y27	Z27	X28	Y28	Z28	X29	Y29	Z29	X30	Y30	Z30	X31	Y31	Z31	X32	Y32	Z32	X33	Y33	Z33	X34	Y34	Z34	X35	Y35	Z35	X36	Y36	Z36	X37	Y37	Z37	X38	Y38	Z38	X39	Y39	Z39	X40	Y40	Z40	X41	Y41	Z41	X42	Y42	Z42	X43	Y43	Z43	X44	Y44	Z44	X45	Y45	Z45	X46	Y46	Z46	X47	Y47	Z47	X48	Y48	Z48	X49	Y49	Z49	X50	Y50	Z50	X51	Y51	Z51	X52	Y52	Z52	X53	Y53	Z53	X54	Y54	Z54	X55	Y55	Z55	X56	Y56	Z56	X57	Y57	Z57	X58	Y58	Z58	X59	Y59	Z59	X60	Y60	Z60	X61	Y61	Z61	X62	Y62	Z62	X63	Y63	Z63	

881	4.4	127.8651809692383	1229.680297851563	-801.6382446289065	-21.79792976379395	1211.503662109375	-932.5225830078127	-4.801536560058595	1214.752319335938	-791.3895263671877	-86.56941986083986	1142.887451171875	-873.4759521484377	-346.3900756835938	981.2158813476565	-881.9407958984377	-43.72509384155274	989.0008544921877	-871.5134277343752	-20.80777549743653	1055.387084960938	-1054.7021484375	-146.7446594238282	1028.575439453125	-1239.58740234375	-152.4839630126953	978.3896484375002	-1239.298217773438	-186.6637878417969	993.4173583984377	-1286.229858398438	-236.7386474609376	950.5317993164065	-1317.704223632813	-297.8159484863282	1013.085815429688	-1294.96923828125	-453.3861083984376	843.0306396484377	-1149.563842773438	-427.1320800781251	782.1367797851565	-1185.446899414063	-421.4094238281251	830.9209594726565	-1091.522338867188	-32.46620559692384	1044.132446289063	-685.2669677734376	-182.1233062744141	1073.125122070313	-533.6110839843751	-193.4112701416016	1026.299194335938	-518.0787353515626	-231.452865600586	1058.500854492188	-484.6352539062501	-282.7637634277344	1017.706604003906	-452.3304443359376	-338.7718811035157	1077.23828125	-493.4885559082032	-435.052459716797	887.6526489257815	-678.6991577148439	-445.8778076171876	836.190124511719	-623.9442138671876	-394.6754760742189	843.8906250000002	-722.5831909179689	-379.0849609375001	782.5189208984377	-1011.279479980469	-386.0256347656251	757.7220458984376	-792.2698974609377	-481.768524169922	924.6221923828127	-886.4455566406252	-510.952362060547	910.3964843750002	-915.6226196289065	-515.3978271484376	905.953796386719	-858.0726318359377	-350.1809082031251	628.9125366210939	-1107.321411132813	-268.7962951660157	601.4280395507814	-1115.289184570313	-234.6273651123047	633.9302368164064	-1106.498657226563	-248.4128417968751	543.8925170898439	-1102.904663085938	-169.9822387695313	476.5127258300782	-1094.36181640625	-136.0653839111328	456.7515563964845	-990.9567871093752	-137.8120269775391	334.5592346191407	-1081.4931640625	-215.0557708740235	320.0761718750001	-1123.2314453125	-180.1095275878907	304.0634765625001	-1103.755981445313	-208.9375915527344	228.9206848144532	-1065.297241210938	-334.0528259277344	98.55127716064456	-1097.320068359375	-311.6730346679688	88.95652770996095	-1011.803283691406	-408.587860107422	42.83894729614259	-1057.835327148438	-173.732406616211	53.19639587402345	-1069.309326171875	-184.5727844238282	54.42372894287111	-1110.9755859375	-234.5557708740235	33.05156707763673	-1158.477783203125	-356.8931579589844	644.7347412109376	-682.3054199218751	-291.5790710449219	640.8040771484376	-669.7673339843751	-270.4679260253907	666.1998291015626	-679.1151733398439	-249.7122192382813	568.9904785156251	-656.6719970703126	-185.2465362548828	465.202850341797	-664.7459106445314	-143.570785522461	464.0849914550782	-769.1337890625002	-193.1121978759766	270.3195800781251	-683.2734375000001	-292.8259582519532	230.5232086181641	-679.0137329101564	-250.2047882080079	210.2069702148438	-680.4503173828126	-246.0104675292969	158.5740814208985	-709.8161010742189	-336.3473510742188	90.47542572021486	-693.8065185546876	-300.1920776367188	96.18915557861331	-777.228454589844	-404.7474975585939	41.08573913574219	-746.6129760742189	-171.6667175292969	49.63572311401369	-715.0116577148439	-184.0136871337891	57.18587112426759	-671.3461303710939	-242.5049133300782	32.28024291992188	-625.7496948242189	nan	nan	nan	nan	nan	nan	
882	4.405	128.1196746826172	1228.928100585938	-801.4292602539065	-21.59953117370606	1210.557006835938	-932.4944458007815	-4.5496244430542	1214.220581054688	-791.7498779296877	-86.29251861572267	1142.053344726563	-873.3987426757815	-346.9471130371094	980.6052246093752	-882.353210449219	-43.52257919311524	987.7869873046877	-871.2488403320315	-20.89685821533203	1054.96533203125	-1054.775024414063	-146.6241760253907	1027.531127929688	-1239.358032226563	-152.2134857177735	977.6746826171877	-1239.35205078125	-186.5449981689453	992.5443115234377	-1286.024169921875	-236.5022888183594	949.950622558594	-1317.761962890625	-297.4815368652344	1012.494567871094	-1295.046264648438	-453.2069091796876	842.8052368164065	-1149.694702148438	-427.1153564453126	781.768005371094	-1185.5703125	-421.2941894531251	830.5919189453127	-1091.577392578125	-32.26518249511719	1043.324096679688	-685.2080078125001	-182.0703582763672	1072.461791992188	-533.7124023437501	-193.3111419677735	1025.939575195313	-518.1729125976564	-231.2393951416016	1058.022583007813	-484.7280883789064	-282.7716979980469	1017.047485351563	-452.5935363769532	-338.5282592773438	1076.49462890625	-493.6842041015626	-435.1451110839845	887.4846191406252	-678.8313598632814	-445.9649353027345	835.938415527344	-623.9932250976564	-394.6291503906251	843.5979003906252	-722.7132568359376	-381.4991149902344	780.1816406250002	-1012.044921875	-388.4070739746095	754.7994384765626	-793.1004028320315	-481.6412048339845	923.5314941406252	-886.5052490234377	-510.8587341308595	910.037048339844	-915.671569824219	-515.2606201171876	905.4705810546877	-858.0825805664065	-350.0847473144532	628.6986083984376	-1107.296508789063	-268.7539367675782	601.1917724609376	-1115.32861328125	-234.4656677246094	633.7356567382814	-1106.510620117188	-248.3042144775391	543.7204589843751	-1102.90673828125	-169.8695220947266	476.4053955078126	-1094.366821289063	-135.9080505371094	456.6719360351564	-990.9250488281252	-137.9187622070313	334.7698974609376	-1081.497436523438	-214.9077148437501	320.0491333007813	-1123.18017578125	-179.9827728271485	304.0180664062501	-1103.643432617188	-208.8934326171876	228.8419342041016	-1065.262329101563	-334.0537719726563	98.54267883300784	-1097.315795898438	-311.6829833984376	88.94068145751955	-1011.774597167969	-408.6131286621095	42.87604522705079	-1057.792724609375	-173.6724090576172	53.2074661254883	-1069.274169921875	-184.62158203125	54.47578811645509	-1110.926147460938	-234.5444946289063	33.12054061889649	-1158.485717773438	-356.9775390625001	644.5574340820314	-682.3540649414064	-291.6405639648438	640.6057128906251	-669.7780151367189	-270.5312194824219	666.0359497070314	-679.2318725585939	-249.7052459716797	568.8807373046876	-656.7406616210939	-185.1554565429688	465.1678161621095	-664.7935180664064	-143.3235778808594	464.1258239746095	-769.1813964843752	-193.1300506591797	270.4105834960938	-683.3707275390626	-292.7988586425782	230.5335693359376	-678.9963378906251	-250.1213989257813	210.1999664306641	-680.4202880859376	-245.9993133544922	158.5413818359375	-709.8178710937501	-336.3882751464844	90.54019927978517	-693.8269653320314	-300.1789855957032	96.17070007324222	-777.2549438476565	-404.7791137695314	41.1013412475586	-746.5988769531251	-171.7522735595703	49.72380828857423	-715.0463867187501	-184.022201538086	57.1747512817383	-671.3402099609376	-242.5090637207032	32.3005485534668	-625.7187500000001	nan	nan	nan	nan	nan	nan	
883	4.41	128.3697509765625	1228.081909179688	-801.4221801757815	-21.54193305969239	1209.751586914063	-932.3354492187502	-4.423836708068849	1213.185791015625	-791.3779907226565	-86.0432586669922	1141.279541015625	-873.421081542969	-346.8787536621094	980.148132324219	-882.4133911132815	-43.40507507324219	986.9951171875002	-871.2696533203127	-20.62843322753907	1054.096801757813	-1054.671264648438	-146.369369506836	1026.64599609375	-1239.406005859375	-151.9694976806641	977.0979003906252	-1239.336303710938	-186.2597808837891	991.846130371094	-1286.177490234375	-236.4043426513672	949.1623535156252	-1317.717529296875	-297.1971130371094	1012.069763183594	-1295.092895507813	-453.1204223632814	842.4744262695315	-1149.810791015625	-427.157928466797	781.441345214844	-1185.686767578125	-421.2750854492189	830.264587402344	-1091.6611328125	-32.27179336547852	1042.37744140625	-685.0187377929689	-181.8673706054688	1071.798217773438	-533.7081298828126	-192.8223266601563	1025.30029296875	-517.9156494140626	-230.9468688964844	1057.474731445313	-484.8751831054689	-282.6441345214844	1016.708557128906	-452.6502075195314	-338.3969421386719	1076.56103515625	-493.5948486328126	-435.1398315429689	887.3145141601565	-678.9000854492189	-446.0036926269532	835.706970214844	-624.0489501953126	-394.6671752929689	843.247253417969	-722.8046264648439	-380.9519042968751	779.7320556640627	-1011.456420898438	-388.685516357422	754.7461547851564	-792.4930419921877	-481.7142028808595	923.2129516601565	-886.530944824219	-510.8365783691407	909.6150512695315	-915.7542724609377	-515.4450073242189	905.1465454101565	-858.2351074218752	-349.9509582519532	628.3956909179689	-1107.373413085938	-268.6661682128907	601.0272216796876	-1115.329833984375	-234.446273803711	633.5446166992189	-1106.46923828125	-248.1664733886719	543.5325317382814	-1102.88427734375	-169.6605682373047	476.3120727539064	-1094.327880859375	-135.8069610595703	456.5592041015626	-990.9569091796877	-137.811752319336	334.6255493164063	-1081.416748046875	-214.7493133544922	319.9474792480469	-1123.142578125	-179.8582916259766	303.9718933105469	-1103.664184570313	-208.796127319336	228.7934112548829	-1065.217529296875	-333.9906311035157	98.52500152587893	-1097.238037109375	-311.6863098144532	88.91517639160158	-1011.765686035156	-408.614715576172	42.8868522644043	-1057.74267578125	-173.7148132324219	53.17959213256837	-1069.296142578125	-184.5389862060547	54.46382904052736	-1110.931518554688	-234.5677642822266	33.09761428833009	-1158.457275390625	-357.0203552246094	644.3891601562501	-682.3429565429689	-291.6785583496094	640.3345336914064	-669.7826538085939	-270.7247009277344	665.8189086914064	-679.3455200195314	-249.7145690917969	568.7481079101564	-656.7531738281251	-185.0634155273438	465.1423645019532	-664.8524169921876	-143.3003692626953	463.9505615234376	-769.153503417969	-193.0722656250001	270.3749389648438	-683.3860473632814	-292.7037963867188	230.6107177734376	-678.9984741210939	-250.1168975830079	210.1403045654297	-680.4300537109376	-245.9854125976563	158.5255279541016	-709.8765869140626	-336.3616943359376	90.56079101562501	-693.8532714843751	-300.1646423339844	96.1556091308594	-777.251647949219	-404.7607727050782	41.15784454345704	-746.6262207031251	-171.6555480957032	49.65339279174806	-714.9942016601564	-183.9544982910157	57.1542205810547	-671.3572998046876	-242.4802703857422	32.31732559204102	-625.7134399414064	nan	nan	nan	nan	nan	nan	
884	4.415	128.7083587646485	1226.9833984375	-801.468444824219	-21.25067710876465	1208.938354492188	-932.3718261718752	-4.121418476104737	1212.36572265625	-791.4042968750002	-85.69415283203126	1140.399047851563	-873.533386230469	-346.3955078125001	979.654479980469	-882.2420043945315	-43.46358108520509	986.4570922851565	-871.4802856445315	-20.23479080200196	1052.829956054688	-1054.490356445313	-145.9778442382813	1026.090209960938	-1239.598754882813	-152.32421875	976.2197875976565	-1238.995239257813	-185.853012084961	991.336120605469	-1286.3125	-236.0702362060547	948.598815917969	-1318.01318359375	-296.8637695312501	1011.623596191406	-1295.199340820313	-452.9705810546876	842.2635498046877	-1149.892333984375	-427.1563110351564	781.1584472656252	-1185.6953125	-421.2897949218751	829.8962402343752	-1091.72998046875	-31.94804000854493	1041.4453125	-685.2333374023439	-181.695556640625	1071.2431640625	-533.6778564453126	-193.0320281982422	1024.447021484375	-518.1647338867189	-230.7545013427735	1057.023681640625	-484.8875732421876	-282.4630126953126	1016.506896972656	-452.5957031250001	-338.1514892578126	1076.064819335938	-493.6353149414064	-435.121307373047	887.1082763671877	-679.0340576171876	-446.0808410644532	835.4669189453127	-624.1151123046876	-394.6806640625001	842.9265136718752	-722.8734130859376	-380.9125671386719	779.3067626953127	-1011.558959960938	-388.6022338867189	754.4506225585939	-792.578308105469	-481.7371215820314	922.808288574219	-886.567565917969	-510.8260803222657	909.2088012695315	-915.8443603515627	-515.3015136718751	904.8284912109377	-858.4605102539065	-349.8404235839844	628.2702636718751	-1107.513427734375	-268.6534423828126	600.7940063476564	-1115.390502929688	-234.3877105712891	633.3457031250001	-1106.446411132813	-248.0722961425782	543.3463134765626	-1102.927490234375	-169.5011138916016	476.2351684570314	-1094.388916015625	-135.6484069824219	456.4659729003907	-990.9202270507815	-137.6424255371094	334.5160827636719	-1081.35009765625	-214.6150360107422	319.9456787109376	-1123.13818359375	-179.7079315185547	303.8923645019532	-1103.633422851563	-208.7429199218751	228.793441772461	-1065.180908203125	-333.9366455078126	98.60083007812503	-1097.228637695313	-311.6395568847657	88.93245697021486	-1011.744934082031	-408.620819091797	42.89274597167969	-1057.732788085938	-173.7195129394532	53.1653289794922	-1069.310180664063	-184.620101928711	54.49686813354494	-1110.955078125	-234.5454406738282	33.1451530456543	-1158.443603515625	-357.1189880371094	644.1715087890626	-682.4360351562501	-291.7513122558594	640.1859741210939	-669.8452758789064	-270.7840270996094	665.6569824218751	-679.4355468750001	-249.6821746826172	568.5187377929689	-656.7807006835939	-184.9881744384766	465.0461425781251	-664.8645629882814	-143.2792358398438	463.9595336914064	-769.157165527344	-193.039291381836	270.3726806640626	-683.4174194335939	-292.6653137207032	230.6272888183594	-679.0529785156251	-250.1126861572266	210.1406707763672	-680.4307861328126	-245.9085540771485	158.5525360107422	-709.8559570312501	-336.3510131835938	90.52041625976564	-693.8571166992189	-300.1492309570313	96.16432952880862	-777.240417480469	-404.7622070312501	41.15353393554688	-746.6262817382814	-171.7140655517578	49.69383239746095	-715.0318603515626	-183.9899291992188	57.15414047241212	-671.3713378906251	-242.4821929931641	32.30308532714844	-625.7269287109376	nan	nan	nan	nan	nan	nan	
